<svg xmlns="http://www.w3.org/2000/svg" width="192.344" height="357.765" viewBox="0 0 192.344 357.765"><defs><style>.a{fill:#74c66d;}.b{fill:#211715;}.c{fill:#f2635f;}</style></defs><path class="a" d="M96.368,277.7c1.054-2.988,5.109-6.532,8.692-8.872,7.49-4.893,13.677-7.313,24.166-7.951,13.418-.817,31.455,3.665,45.716,19.132a.864.864,0,0,1-1.062,1.334c-16.608-9.275-27.352-11.675-41.248-10.4a41.092,41.092,0,0,0-15.016,3.868c-4.642,2.364-7.978,6.087-11.262,10.046-1.637,1.973-5.613,5.7-10.252,4.836"/><path class="a" d="M77.526,116.111c-.2,6.4-.229,13.3,4.068,18.539,1.393,1.7,3.2,3.163,4.281,5.023a16.57,16.57,0,0,1,1.652,6.283,12.829,12.829,0,0,0,2.039,6.175c1.359,1.818,3.871,2.6,6.394,2.6,2.928,0,5.036-.787,6.4-2.6a12.839,12.839,0,0,0,2.039-6.175,16.569,16.569,0,0,1,1.651-6.283c1.078-1.86,2.888-3.323,4.281-5.023,4.3-5.243,4.265-12.139,4.068-18.539"/><path class="b" d="M98.683,278.342c.9-2.362,3.589-4.529,5.608-6.053a51.521,51.521,0,0,1,7.287-4.522,41.467,41.467,0,0,1,15.464-4.322,54.532,54.532,0,0,1,29.7,5.68,59.1,59.1,0,0,1,8.56,5.336c1.32.988,2.583,2.054,3.807,3.158q1.026.927,2.012,1.9.462.456.915.921.3.312.605.629.7.909.094-.684l.617-1.059,1.305-.29-.856-.472q-.631-.345-1.265-.684-1.026-.548-2.06-1.079-2.148-1.1-4.338-2.115a85.81,85.81,0,0,0-8.264-3.339,58.236,58.236,0,0,0-15.021-3,65.7,65.7,0,0,0-16.6,1.08,32.654,32.654,0,0,0-16.916,8.537c-2.1,2.046-3.794,4.465-5.889,6.5-1.724,1.676-4.18,3.319-6.709,2.916a2.474,2.474,0,0,0-2.952,1.676,2.419,2.419,0,0,0,1.676,2.952,12.082,12.082,0,0,0,9.229-2.354c2.28-1.671,3.91-3.842,5.782-5.93a30.491,30.491,0,0,1,7.249-6.239,31.329,31.329,0,0,1,9.806-3.432,58.08,58.08,0,0,1,33.921,3.769c3.248,1.378,6.406,2.973,9.506,4.655,1.662.9,3.316,2.025,5.146.819a3.3,3.3,0,0,0,.536-4.979,49.736,49.736,0,0,0-7.46-6.886,62.389,62.389,0,0,0-8.346-5.567,58.953,58.953,0,0,0-31.325-7.4,49.579,49.579,0,0,0-19.736,4.844,52.73,52.73,0,0,0-8.72,5.462c-2.865,2.223-5.681,4.837-7,8.3a2.419,2.419,0,0,0,1.676,2.952,2.454,2.454,0,0,0,2.953-1.676Z"/><path class="a" d="M95.359,233.7c-1.054-2.987-5.109-6.531-8.692-8.872-7.489-4.893-13.676-7.313-24.165-7.951-13.419-.817-31.455,3.665-45.716,19.132a.864.864,0,0,0,1.061,1.334C34.455,228.07,45.2,225.669,59.1,226.94a41.1,41.1,0,0,1,15.016,3.868c4.642,2.364,7.979,6.087,11.263,10.046,1.637,1.973,5.613,5.7,10.251,4.836"/><path class="b" d="M97.673,233.063a18.8,18.8,0,0,0-6.018-7.521,52.736,52.736,0,0,0-7.85-5.26,46.134,46.134,0,0,0-16.655-5.368A59.346,59.346,0,0,0,34.565,220a61.606,61.606,0,0,0-15.811,10.644,41.025,41.025,0,0,0-3.665,3.665,3.3,3.3,0,0,0,.535,4.979c1.83,1.206,3.485.083,5.147-.819q2.619-1.422,5.3-2.73a68.06,68.06,0,0,1,16.921-5.866,57.94,57.94,0,0,1,16.1-.537,42.939,42.939,0,0,1,11.523,2.514,25.457,25.457,0,0,1,8.955,6.073c2.216,2.246,4.007,4.946,6.458,6.947A12.662,12.662,0,0,0,96.263,248a2.418,2.418,0,0,0,1.677-2.952,2.459,2.459,0,0,0-2.953-1.676c-4.937.787-8.349-4.944-11.171-7.958a32.322,32.322,0,0,0-15.951-9.463,60.757,60.757,0,0,0-32.269.821,79.7,79.7,0,0,0-8.867,3.389c-1.576.7-3.132,1.444-4.672,2.22q-1.233.621-2.451,1.269-.632.335-1.258.675-.426.231-.851.465-1.253.507.875.528l.618,1.059-.207,1q.3-.319.6-.636.45-.469.912-.93.906-.908,1.85-1.776c1.22-1.123,2.482-2.208,3.8-3.221a57.453,57.453,0,0,1,7.374-4.816,55.68,55.68,0,0,1,15.067-5.629c9.821-2.132,21.031-1.714,30.222,2.623a53.1,53.1,0,0,1,8.168,4.8c2.248,1.607,5.283,3.943,6.271,6.537A2.469,2.469,0,0,0,96,236.016a2.418,2.418,0,0,0,1.676-2.953Z"/><path class="b" d="M93.56,155.889V355.447c0,3.088,4.8,3.093,4.8,0V155.889c0-3.088-4.8-3.093-4.8,0Z"/><path class="b" d="M75.126,116.111c-.191,6.365-.133,13.325,3.654,18.77,1.854,2.664,4.882,4.623,5.763,7.859.871,3.2.7,6.531,2.283,9.541,2.953,5.625,12.506,6.692,16.817,2.038,2.439-2.632,2.777-6.07,3.3-9.447a11,11,0,0,1,1.381-4.332,29.927,29.927,0,0,1,3.156-3.565c5.182-5.818,5.533-13.454,5.31-20.864-.093-3.082-4.893-3.095-4.8,0,.163,5.417.323,11.3-2.772,16.012-1.632,2.488-4.242,4.2-5.557,6.927-1.4,2.9-1.3,6.03-2.1,9.082-.6,2.3-1.841,3.867-4.293,4.153-2.378.277-5.11-.126-6.305-2.427-1.321-2.546-1.063-5.673-1.8-8.394-.871-3.223-3.03-5.339-5.2-7.729-4.352-4.793-4.228-11.549-4.045-17.624.094-3.09-4.707-3.087-4.8,0Z"/><path class="b" d="M92.618,135.913c.293-.35.584-.7.894-1.038.14-.151.283-.3.432-.44.089-.085.184-.164.274-.248.291-.269-.385.263-.147.107.193-.127.377-.26.581-.371.094-.051.194-.093.288-.143.25-.135-.538.189-.142.069.252-.076.5-.134.757-.191.286-.064-.553.039-.1.019.166-.007.331-.018.5-.019.141,0,.283.005.424.014.39.024.133.048-.085-.027.246.085.523.1.775.183a2.912,2.912,0,0,0,.32.115c-.516-.1-.342-.15-.1-.02.186.1.358.218.534.334.383.252-.429-.382-.1-.07.074.07.154.136.229.206.165.154.322.316.475.482.309.335.6.688.889,1.038a2.409,2.409,0,0,0,3.394,0,2.466,2.466,0,0,0,0-3.394,12.789,12.789,0,0,0-2.52-2.442,7.927,7.927,0,0,0-8.39-.036,12.8,12.8,0,0,0-2.576,2.478,2.4,2.4,0,1,0,3.394,3.394Z"/><path class="c" d="M46.4,23.985c-6.831,4.264-15.178,5.431-17.424,12.375,0,0-2.026,8.095-3.733,14.893-20.628,11.08-26.073,31.1-21,37.319,3.226,3.959,16.438,2.813,18.32,9.5,2.745,16.318,32.988,11.784,41.919,7.538l2.582-1.228c7.459,8.134,19.3,17.238,31.892,17.79,7.18.315,14.12-4,18.313-11.283a28.977,28.977,0,0,0,15.668,2.179,21.98,21.98,0,0,0,12.546-7.351c1.2.144,1.867.231,1.867.231,13.921,1.814,24.606-.444,31.793-4.939,11.226-7.022,13.918-19.506,7.079-30.469,8.4-9.63-9.737-16.166-20.994-20.008l-3.083-1.052a28.22,28.22,0,0,0,6.611-15.946,10.082,10.082,0,0,0-5.221-9.36c-6.758-3.675-14.393-6.035-21.69-8.326l-.418-.131L132,12.753c-1.168-3.763-3.214-6.967-7.045-8.118A54.977,54.977,0,0,0,85.983,7.649C81.879,4,75.565,2.725,65.578,6.572c-9.384,3.614-9.79,9.33-15.814,14.879A22.646,22.646,0,0,1,46.4,23.985Z"/><path class="b" d="M24.115,49.135C14.643,54.246,6.482,62.147,2.309,72.181-.006,77.748-2.079,87.388,3.962,91.49c3.325,2.258,7.779,2.546,11.523,3.769a9.018,9.018,0,0,1,4.2,2.363c.454.51-.2-.362.158.22a5.929,5.929,0,0,1,.323.584c-.2-.446.068.234.079.281.051.231.084.466.136.7a14.378,14.378,0,0,0,1.025,2.908c3.428,7.329,12.466,9.332,19.793,9.637a62.633,62.633,0,0,0,13.926-1.109,43.152,43.152,0,0,0,10.565-3.161,2.421,2.421,0,0,0,.861-3.284,2.455,2.455,0,0,0-3.284-.861c-.162.076-1.081.462-.4.189-.26.105-.519.208-.781.307-.7.263-1.415.5-2.132.718-1.541.47-3.108.857-4.686,1.186a56.188,56.188,0,0,1-10.906,1.246,47.021,47.021,0,0,1-5.874-.227,30.093,30.093,0,0,1-4.956-.98,14.01,14.01,0,0,1-4.206-1.839,10.375,10.375,0,0,1-2.942-2.755c-.2-.294-.377-.6-.543-.911-.074-.138-.459-1.014-.3-.609-.34-.869-.462-1.767-.73-2.65a8.769,8.769,0,0,0-3.779-4.679c-3.424-2.228-7.7-2.721-11.54-3.858-.391-.116-.78-.237-1.164-.372-.219-.077-.438-.156-.653-.242.091.036.381.177-.039-.019a12.042,12.042,0,0,1-1.084-.586,3.534,3.534,0,0,1-.315-.218c.488.375-.1-.158-.183-.229-.436-.35.269.427.008.018-.052-.08-.112-.155-.159-.238-.148-.257-.288-.513-.426-.776-.065-.123-.159-.416.058.151-.056-.147-.117-.293-.164-.443-.1-.316-.193-.628-.268-.949-.036-.16-.187-1.014-.143-.709.059.408-.019-.188-.021-.221-.016-.187-.032-.372-.043-.559a16.963,16.963,0,0,1,.031-2.288,9.989,9.989,0,0,1,.257-1.854,26.808,26.808,0,0,1,.7-2.774c3.07-9.956,11.439-18.109,20.659-23.085,2.72-1.467.3-5.613-2.422-4.144Z"/><path class="b" d="M164.584,52.843c5.229,1.786,10.491,3.588,15.293,6.347.56.322,1.113.658,1.653,1.012.429.283,1.156.8,1.306.919a15.647,15.647,0,0,1,1.267,1.118c.19.188.375.379.553.578.092.1.571.725.31.361a9.3,9.3,0,0,1,.738,1.227c.2.4-.064-.28.053.15.068.247.138.49.2.739.088.37.045-.324.01.214-.014.224,0,.451-.02.676.04-.5-.023.059-.072.251-.044.17-.246.751-.192.623a9.7,9.7,0,0,1-2.309,2.963A28.806,28.806,0,0,1,178.16,73.7c-2.665,1.559-.252,5.709,2.423,4.144,5.284-3.091,12.572-8.578,9.387-15.6a15.144,15.144,0,0,0-5.464-5.82,45.792,45.792,0,0,0-8.233-4.318c-3.414-1.452-6.9-2.7-10.413-3.9-2.929-1-4.187,3.634-1.276,4.629Z"/><path class="b" d="M184.993,73.207a19.824,19.824,0,0,1,1.754,4.239,17,17,0,0,1,.762,4.2,17.578,17.578,0,0,1-1.351,8.054c-2.669,5.975-8.026,9.958-14.32,12.133a46.814,46.814,0,0,1-15.211,2.338c-3.088.01-3.094,4.81,0,4.8,9.379-.031,19.115-2.021,26.61-7.956a23.394,23.394,0,0,0,9.106-18.409,25.78,25.78,0,0,0-3.2-11.823c-1.458-2.725-5.6-.3-4.145,2.423Z"/><path class="b" d="M48.94,67.013c-5.732-.86-10.445-4.708-14.22-8.891a42.588,42.588,0,0,1-8.648-14.08,2.459,2.459,0,0,0-2.952-1.676,2.423,2.423,0,0,0-1.676,2.952,48.016,48.016,0,0,0,9.882,16.2c4.26,4.72,9.875,9.156,16.337,10.125a2.479,2.479,0,0,0,2.953-1.676,2.418,2.418,0,0,0-1.676-2.952Z"/><path class="b" d="M66.216,70.619a67.275,67.275,0,0,1,19.338-1.74,82.742,82.742,0,0,1,20.878,3.395,52.488,52.488,0,0,1,10.076,4.151c2.709,1.488,5.134-2.655,2.423-4.145a66.172,66.172,0,0,0-20.371-6.8,90.72,90.72,0,0,0-22.244-1.26A64.1,64.1,0,0,0,64.94,65.99c-2.989.771-1.722,5.4,1.276,4.629Z"/><path class="b" d="M76.291,33.876c2.964-3.741,10.768-7.957,14.328-2.824.789,1.137,2.726,1.784,3.77.486,2.847-3.545,12.792-6.68,14.592-.608.876,2.955,5.509,1.7,4.628-1.276-1.4-4.71-5.737-7.124-10.5-6.82-4.264.273-9.34,1.857-12.114,5.309l3.77.486a10.368,10.368,0,0,0-4.491-3.91,11.968,11.968,0,0,0-6.394-.561A17.66,17.66,0,0,0,72.9,30.482a2.475,2.475,0,0,0,0,3.394,2.416,2.416,0,0,0,3.394,0Z"/><path class="b" d="M31.288,37c1.32-3.888,5.552-5.687,9.213-7.357,4.631-2.111,9.106-4.309,12.589-8.135,2.983-3.278,4.96-7.395,8.521-10.1A24.422,24.422,0,0,1,69.646,7.72a23.372,23.372,0,0,1,7.6-1.07,11.827,11.827,0,0,1,5.561,1.621,12.688,12.688,0,0,1,3.849,3.822c1.7,2.562,5.859.161,4.145-2.423A16.581,16.581,0,0,0,80.374,2.236c-6.016-1.219-12.571.491-17.992,3.12a21.4,21.4,0,0,0-6.51,4.854c-1.693,1.87-3.052,4-4.582,6a23.159,23.159,0,0,1-5.178,5.1,46.664,46.664,0,0,1-7.139,3.782c-5.16,2.347-10.364,4.893-12.314,10.632-1,2.931,3.639,4.189,4.629,1.276Z"/><path class="b" d="M96.6,6.433A51.585,51.585,0,0,1,116.84,5.267a53.156,53.156,0,0,1,5.576,1.148,10.339,10.339,0,0,1,4.106,1.695c2.107,1.712,3.012,4.472,3.632,7.013.732,3,5.362,1.729,4.629-1.276-.792-3.245-2.111-6.6-4.622-8.913-2.975-2.74-7.269-3.5-11.128-4.149A57.407,57.407,0,0,0,95.323,1.8C92.33,2.562,93.6,7.193,96.6,6.433Z"/><path class="b" d="M140.783,18.029c3.785,1.188,7.577,2.363,11.308,3.717a55.341,55.341,0,0,1,10.565,4.706c5.919,3.715,3.5,11.759.809,16.753a29.012,29.012,0,0,1-7.46,8.945,2.415,2.415,0,0,0,0,3.394,2.459,2.459,0,0,0,3.4,0,31.61,31.61,0,0,0,11.633-20.63,12.973,12.973,0,0,0-3.511-10.652c-2.908-2.984-7.406-4.522-11.2-6.024-4.671-1.851-9.475-3.334-14.266-4.838-2.954-.927-4.218,3.705-1.276,4.629Z"/><path class="b" d="M131.575,29.054c-7.335,9.2-16.862,18.383-29.408,18.328-3.089-.013-3.093,4.787,0,4.8,13.856.061,24.636-9.5,32.8-19.734a2.476,2.476,0,0,0,0-3.394,2.416,2.416,0,0,0-3.394,0Z"/><path class="b" d="M143.875,87.769c2.417,2.586,3.926,5.923,3.216,9.512a16.576,16.576,0,0,1-5.932,9.324c-6.7,5.64-15.554,5.11-23.26,1.966a2.416,2.416,0,0,0-2.953,1.676,2.462,2.462,0,0,0,1.677,2.953c7.461,3.043,16.088,3.763,23.388-.094,6.4-3.38,11.9-9.963,12.044-17.465a16.164,16.164,0,0,0-4.786-11.266c-2.114-2.262-5.5,1.138-3.394,3.394Z"/><path class="b" d="M61.019,100.843a68.2,68.2,0,0,0,20.809,18.495c8.414,4.684,19.029,7.55,27.926,2.517a26.8,26.8,0,0,0,10.9-12.363,2.472,2.472,0,0,0-.861-3.284,2.42,2.42,0,0,0-3.284.861,22.958,22.958,0,0,1-8.007,9.925,16.641,16.641,0,0,1-11.067,2.668c-8.774-.851-16.9-6.022-23.349-11.736a68.037,68.037,0,0,1-8.926-9.506,2.477,2.477,0,0,0-3.284-.861,2.417,2.417,0,0,0-.861,3.284Z"/></svg>