<svg xmlns="http://www.w3.org/2000/svg" width="166.885" height="191.594" viewBox="0 0 166.885 191.594"><defs><style>.a{fill:#7abee6}.b{fill:#fff}.c{fill:#211715}.d{fill:#febe69}</style></defs><path d="M114.693,83.95A72.087,72.087,0,0,0,92.6,62.839a70.654,70.654,0,0,0-25.5-5.306,95.858,95.858,0,0,0-29.445,4.39C14.5,69.9,6.985,79.554,6.985,79.554A41.8,41.8,0,0,0,4.64,89.129a90.621,90.621,0,0,0-1.394,18.354A55.043,55.043,0,0,0,16.2,140.22c7.745,9.1,20.72,16.408,32.41,18.885,7.7,2.214,16.965,2.578,19.792,2.735,16.371.906,31-1.692,41.6-5.971,8.393,6.586,30.485,13.921,42.017,16.186,2.781.546,5.67,1.006,8.429.357a4.86,4.86,0,0,0,3.969-3.735,6.826,6.826,0,0,0-1.757-5.5,223.985,223.985,0,0,0-30.985-26.2c-1.04-14.37-4.142-28.7-10.4-41.677A85.047,85.047,0,0,0,114.693,83.95Z" class="a"/><path d="M74.738,13.557A40.887,40.887,0,0,1,85.1,32.214c2.313,9.488,1.9,19.492.11,29.079a39.382,39.382,0,0,1-8.758,8.367,48.239,48.239,0,0,1-13.713,6.86,95.272,95.272,0,0,1-11.995,2.941,95.28,95.28,0,0,1-12.286,1.253A48.423,48.423,0,0,1,22.384,78.6a38.658,38.658,0,0,1-10.2-4.691c-4.9-8.431-8.651-17.717-9.654-27.433A41.534,41.534,0,0,1,8.946,20.137C13.9,12.286,23.4,5.722,37.806,3.234,51.294.905,63,3.805,70.294,9.54A43.388,43.388,0,0,1,74.738,13.557Z" class="b"/><path d="M13.539,71.432c-5.8-10.371-10.354-22.75-8.363-34.8C6.809,26.748,11.84,17.64,20.326,12.2c9.228-5.921,21.128-8.284,31.962-7.08A34.608,34.608,0,0,1,66.144,9.6,36.127,36.127,0,0,1,76.988,20.044C84.879,31.45,85.4,45.95,83.145,59.224a2.47,2.47,0,0,0,1.676,2.952A2.419,2.419,0,0,0,87.773,60.5C90,47.365,89.905,33.064,83.3,21.12A44.415,44.415,0,0,0,71.74,7.648a35.713,35.713,0,0,0-14.356-6.52A55.146,55.146,0,0,0,21.2,6.152a37.854,37.854,0,0,0-11.477,8.93A42.163,42.163,0,0,0,1.605,30.674c-4.255,14.805.5,30.162,7.789,43.18,1.509,2.7,5.656.279,4.145-2.422Z" class="c"/><path d="M21.746,80.914a53.722,53.722,0,0,0,11.708,2.139,68.648,68.648,0,0,0,11.483-.4,83.422,83.422,0,0,0,21.011-4.693,52.087,52.087,0,0,0,11.716-6.229,2.465,2.465,0,0,0,.861-3.283,2.419,2.419,0,0,0-3.284-.861,46.345,46.345,0,0,1-12.354,6.371,92.622,92.622,0,0,1-12.781,3.188c-9.032,1.56-18.24,1.793-27.084-.862-2.965-.89-4.232,3.742-1.276,4.629Z" class="c"/><path d="M45.059,46.548a11.8,11.8,0,0,0-9.484,7.583A3.963,3.963,0,0,0,36.21,58.2a4.091,4.091,0,0,0,2.2,1.009,43.346,43.346,0,0,0,8.7-.764,42.044,42.044,0,0,0,8.455-2.2,4.084,4.084,0,0,0,1.735-1.689,3.964,3.964,0,0,0-.767-4.049A11.936,11.936,0,0,0,45.059,46.548Z" class="d"/><path d="M44.421,44.234A14.554,14.554,0,0,0,34.261,51.2c-1.132,2.053-1.831,4.485-.971,6.77a6.077,6.077,0,0,0,5.858,3.669,44.559,44.559,0,0,0,7.215-.656A56.264,56.264,0,0,0,53.82,59.4c2.257-.659,4.469-1.521,5.613-3.743,1.179-2.292.335-4.956-1.2-6.84-3.343-4.107-8.764-5.391-13.814-4.579a2.417,2.417,0,0,0-1.676,2.952A2.458,2.458,0,0,0,45.7,48.863a10,10,0,0,1,7.652,1.818,7.421,7.421,0,0,1,1.465,1.52,2.175,2.175,0,0,1,.37,1.287c.106-.324-.079.088-.194.223a4.187,4.187,0,0,1-.563.435c-.341.159-1.291.449-1.883.622a53.39,53.39,0,0,1-11.216,2c-1.127.078-2.749.428-3.512-.353-.192-.2-.038-.065-.009-.011.064.113-.07-.254-.07-.246a3.558,3.558,0,0,1-.031-.7,5.588,5.588,0,0,1,.627-1.69,9.975,9.975,0,0,1,7.364-4.9,2.422,2.422,0,0,0,1.676-2.953A2.452,2.452,0,0,0,44.421,44.234Z" class="c"/><path d="M62.111,42.016a5.334,5.334,0,0,1,.57-4.444,4.068,4.068,0,0,1,2.544-1.645,4.366,4.366,0,0,1,3.889,1.065,5.357,5.357,0,0,1,.951,6.178,4.16,4.16,0,0,1-5.371,1.856A4.57,4.57,0,0,1,62.111,42.016Z" class="c"/><path d="M18.939,49.473a5.328,5.328,0,0,1,.569-4.444,4.075,4.075,0,0,1,2.544-1.645,4.369,4.369,0,0,1,3.89,1.065,5.36,5.36,0,0,1,.95,6.179,4.162,4.162,0,0,1-5.371,1.856A4.567,4.567,0,0,1,18.939,49.473Z" class="c"/><path d="M91.384,64.911c19.932,12.008,31.3,33.665,35.741,55.935q1.012,5.077,1.6,10.228.3,2.617.5,5.244c.029.38.053.761.083,1.141a2.756,2.756,0,0,1,.014.416q.038-.366-.063.15a7.3,7.3,0,0,1-.8,1.825c-1.568,2.669,2.58,5.087,4.145,2.422a10.11,10.11,0,0,0,1.491-4.168,26.667,26.667,0,0,0-.307-4.524q-.488-5.109-1.331-10.18a113.547,113.547,0,0,0-4.843-19.041,88.476,88.476,0,0,0-18.526-31.192,71.65,71.65,0,0,0-15.28-12.4c-2.653-1.6-5.069,2.55-2.423,4.144Z" class="c"/><path d="M4.671,78.916A48.459,48.459,0,0,0,2.105,89.93,113.639,113.639,0,0,0,.849,101.668,57.377,57.377,0,0,0,13.183,140.3a56.3,56.3,0,0,0,14.428,12.649,64.181,64.181,0,0,0,20.36,8.467c3.012.65,4.3-3.976,1.276-4.629a58.281,58.281,0,0,1-30.86-17.7,52.576,52.576,0,0,1-12.8-35,90.906,90.906,0,0,1,1.08-12.4A50.091,50.091,0,0,1,9.3,80.192,2.416,2.416,0,0,0,7.623,77.24a2.459,2.459,0,0,0-2.952,1.676Z" class="c"/><path d="M47.971,161.42c6.942,1.959,14.214,2.531,21.393,2.869a111.517,111.517,0,0,0,27.142-1.969,82.721,82.721,0,0,0,12.617-3.547,2.467,2.467,0,0,0,1.676-2.953,2.419,2.419,0,0,0-2.952-1.676c-14.44,5.381-30.113,6.233-45.346,4.909a71.43,71.43,0,0,1-13.254-2.262c-2.978-.841-4.249,3.789-1.276,4.629Z" class="c"/><path d="M49.343,162.392a53.687,53.687,0,0,0-4.333,16.8,2.409,2.409,0,0,0,2.4,2.4,2.464,2.464,0,0,0,2.4-2.4,48.163,48.163,0,0,1,3.677-14.382,2.476,2.476,0,0,0-.861-3.283,2.416,2.416,0,0,0-3.283.861Z" class="c"/><path d="M45.2,177.8a37.488,37.488,0,0,0-11.173,7.743,2.4,2.4,0,1,0,3.394,3.394c.758-.759,1.546-1.487,2.368-2.176.212-.177.425-.352.641-.524a2.325,2.325,0,0,1,.288-.228c-.154.087-.272.207-.048.039.442-.331.887-.655,1.343-.967a35.583,35.583,0,0,1,5.61-3.136,2.409,2.409,0,0,0,.861-3.284A2.472,2.472,0,0,0,45.2,177.8Z" class="c"/><path d="M44.976,179.485a14.559,14.559,0,0,0-1.587,4.455c-.258,1.585-.424,3.183-.638,4.774l.086-.638c-.022.163-.045.325-.067.488a2.638,2.638,0,0,0,.241,1.849,2.4,2.4,0,0,0,3.284.861,2.3,2.3,0,0,0,1.1-1.434c.19-1.344.344-2.693.524-4.038l-.086.638a17.448,17.448,0,0,1,.471-2.558c.118-.4.266-.794.416-1.185.109-.281-.22.489-.039.1.041-.088.08-.176.122-.264.1-.211.206-.418.315-.625a2.4,2.4,0,0,0-4.145-2.422Z" class="c"/><path d="M47.319,183.745q.659.438,1.288.918l-.485-.375a28.515,28.515,0,0,1,5.046,5.209l-.375-.486q.411.534.81,1.077a2.618,2.618,0,0,0,1.434,1.1,2.458,2.458,0,0,0,1.85-.242,2.43,2.43,0,0,0,1.1-1.435,2.342,2.342,0,0,0-.242-1.849,44.082,44.082,0,0,0-3.626-4.427,26.191,26.191,0,0,0-4.381-3.638,2.416,2.416,0,0,0-3.283.861,2.456,2.456,0,0,0,.861,3.284Z" class="c"/><path d="M85.971,163.741a63.462,63.462,0,0,0-2.5,13.817,2.412,2.412,0,0,0,2.4,2.4,2.457,2.457,0,0,0,2.4-2.4c.077-1.095.186-2.187.316-3.278a3.483,3.483,0,0,1,.047-.366c.043-.293.086-.585.132-.877q.127-.813.277-1.623a60.529,60.529,0,0,1,1.558-6.4,2.425,2.425,0,0,0-1.676-2.953,2.45,2.45,0,0,0-2.953,1.677Z" class="c"/><path d="M84.384,176.317a31.71,31.71,0,0,0-11.124,9.554,2.408,2.408,0,0,0,.861,3.284,2.47,2.47,0,0,0,3.283-.861c.084-.113.17-.225.253-.339.176-.241-.293.369-.015.019.174-.219.348-.436.527-.651q.53-.638,1.1-1.244a28.025,28.025,0,0,1,2.373-2.263c.208-.176.418-.349.632-.52.084-.067.176-.13.257-.2-.475.421-.069.056.036-.022q.627-.465,1.28-.9a30.185,30.185,0,0,1,2.963-1.714,2.417,2.417,0,0,0,.861-3.284,2.458,2.458,0,0,0-3.284-.861Z" class="c"/><path d="M83.536,180.05a57.164,57.164,0,0,0-1.518,9.032,2.41,2.41,0,0,0,2.4,2.4,2.461,2.461,0,0,0,2.4-2.4c.071-.888.161-1.774.279-2.657l-.085.638a56.267,56.267,0,0,1,1.152-5.737,2.4,2.4,0,1,0-4.628-1.276Z" class="c"/><path d="M87.188,181.988c.324.1.644.219.962.341.2.075.39.155.585.234.353.144-.482-.208-.217-.092l.259.112q1.237.543,2.436,1.169c.757.394,1.5.81,2.228,1.263.312.2.619.4.918.612l.182.133c.313.227-.5-.412-.218-.167.113.1.231.192.342.3a2.4,2.4,0,0,0,3.394-3.394,20.136,20.136,0,0,0-4.424-2.887,33.324,33.324,0,0,0-5.171-2.247,2.42,2.42,0,0,0-2.952,1.676,2.453,2.453,0,0,0,1.676,2.952Z" class="c"/><path d="M130.728,139.236c5.97,4.3,11.821,8.755,17.377,13.582,2.643,2.3,5.222,4.667,7.756,7.084q2.024,1.93,4.013,3.9a6.039,6.039,0,0,1,2.212,3.506c.789,5.836-12.664,1.77-15.569,1.012a172.907,172.907,0,0,1-18.316-5.9c-5.811-2.231-11.878-4.713-16.859-8.522a2.414,2.414,0,0,0-3.284.861,2.46,2.46,0,0,0,.861,3.283c4.929,3.769,10.927,6.219,16.655,8.481a170.966,170.966,0,0,0,19.819,6.466,71.287,71.287,0,0,0,9.9,2.008c3.926.44,8.971-.119,10.876-4.148a7.643,7.643,0,0,0,.27-5.8,12.482,12.482,0,0,0-3.479-4.94c-2.789-2.743-5.617-5.447-8.52-8.07a245.648,245.648,0,0,0-21.291-16.94,2.419,2.419,0,0,0-3.284.861,2.454,2.454,0,0,0,.861,3.283Z" class="c"/><path d="M77.648,50.822a26.232,26.232,0,0,0-3.755-.661A2.317,2.317,0,0,0,71.7,51.636a1.8,1.8,0,0,0-.207.925,2.427,2.427,0,0,0,.7,1.7l.486.375a2.385,2.385,0,0,0,1.211.328c.173.018.346.039.519.062l-.638-.086a22.684,22.684,0,0,1,2.6.514,2.507,2.507,0,0,0,1.85-.242,2.687,2.687,0,0,0,1.1-1.435,2.431,2.431,0,0,0-.242-1.849,2.471,2.471,0,0,0-1.435-1.1Z" class="a"/><path d="M23.98,66.532a8.724,8.724,0,0,1,1.446-1.422l-.486.376c.069-.054.139-.106.209-.157A2.312,2.312,0,0,0,26.3,62.938a1.8,1.8,0,0,0-.285-.893l-.375-.485a2.4,2.4,0,0,0-1.059-.617l-.638-.086a2.388,2.388,0,0,0-1.212.327,10.922,10.922,0,0,0-2.14,1.954,2.319,2.319,0,0,0-.5,2.622,1.785,1.785,0,0,0,.5.772l.486.376a2.384,2.384,0,0,0,1.211.327l.638-.085a2.394,2.394,0,0,0,1.059-.618Z" class="a"/></svg>